<svg width="300" height="200" viewBox="0 0 300 200" fill="none" xmlns="http://www.w3.org/2000/svg">
  <rect width="300" height="200" rx="12" fill="#4CAF50" />
  <path d="M0 150 L300 150 L300 200 L0 200 Z" fill="#1B5E20" />
  <path d="M120 150 C120 150, 150 100, 180 150 Z" fill="#1B5E20" />
  <path d="M60 150 C60 150, 90 110, 120 150 Z" fill="#1B5E20" />
  <path d="M180 150 C180 150, 210 110, 240 150 Z" fill="#1B5E20" />
  <circle cx="150" cy="60" r="30" fill="#FFC107" />
  <path d="M140 150 L140 100 L160 100 L160 150 Z" fill="#795548" />
  <path d="M130 100 C130 100, 150 70, 170 100 Z" fill="#388E3C" />
  <path d="M125 90 C125 90, 150 50, 175 90 Z" fill="#388E3C" />
  <path d="M120 80 C120 80, 150 30, 180 80 Z" fill="#388E3C" />
</svg>