<svg width="300" height="200" viewBox="0 0 300 200" fill="none" xmlns="http://www.w3.org/2000/svg">
  <rect width="300" height="200" rx="12" fill="#4AAEE8" />
  <path d="M150 40 L200 120 L100 120 Z" fill="#2D8BBD" />
  <path d="M220 70 L250 120 L190 120 Z" fill="#2D8BBD" />
  <path d="M80 70 L110 120 L50 120 Z" fill="#2D8BBD" />
  <rect x="0" y="120" width="300" height="80" fill="#F9D923" />
  <circle cx="250" cy="40" r="20" fill="#F9D923" />
  <path d="M130 140 C130 140, 150 130, 170 140 C190 150, 210 150, 230 140 L230 180 L130 180 Z" fill="#2D8BBD" />
  <path d="M70 140 C70 140, 90 130, 110 140 L110 180 L70 180 Z" fill="#2D8BBD" />
</svg>