<svg xmlns="http://www.w3.org/2000/svg" viewBox="0 0 512 512" fill="currentColor"><path d="M320 96H192c-8.8 0-16 7.2-16 16v37.5c-21.9 9.8-38.9 28.8-46.5 51.8-2.8 8.5-4.3 17.6-4.3 27.1 0 48.5 39.5 88 88 88h16v37.5c-21.9 9.8-38.9 28.8-46.5 51.8-2.8 8.5-4.3 17.6-4.3 27.1 0 48.5 39.5 88 88 88h64c48.5 0 88-39.5 88-88 0-9.5-1.5-18.6-4.3-27.1-7.6-23-24.6-42-46.5-51.8V316.4h16c48.5 0 88-39.5 88-88 0-9.5-1.5-18.6-4.3-27.1-7.6-23-24.6-42-46.5-51.8V112c0-8.8-7.2-16-16-16zm-64 320h-64c-30.9 0-56-25.1-56-56s25.1-56 56-56h64c30.9 0 56 25.1 56 56s-25.1 56-56 56zm0-160h-64c-30.9 0-56-25.1-56-56s25.1-56 56-56h64c30.9 0 56 25.1 56 56s-25.1 56-56 56z"/></svg>