<svg width="600" height="500" viewBox="0 0 488 252" fill="none" xmlns="http://www.w3.org/2000/svg">
<path d="M422.013 233.255H0C25.3746 229.33 52.3219 223.085 49.5518 198.274V167.255C49.5518 149.03 68.0386 134.255 90.8438 134.255H132.137C152.273 133.387 160.779 130.268 164.346 113.733V95.9863C164.346 80.671 182.892 68.255 205.771 68.2549C322.627 64.7071 419.306 86.8936 422.013 0V233.255Z" fill="white"/>
<path d="M372.903 85C389.471 85 402.862 98.4315 402.862 115V182C402.862 198.569 389.431 212 372.862 212H92.2433C76.9085 212 61.17 202.749 63.173 187.546C65.3516 171.013 79.9149 152.76 135.339 156.176C233.465 162.223 148.157 85.0005 231.309 85H372.903Z" fill="#D9D9D9"/>
</svg>
