<svg width="488" height="252" viewBox="0 0 488 252" fill="none" xmlns="http://www.w3.org/2000/svg">
<path d="M422.013 233.255H0C25.3746 229.33 52.3219 223.085 49.5518 198.274V167.255C49.5518 149.03 68.0386 134.255 90.8438 134.255H132.137C152.273 133.387 160.779 130.268 164.346 113.733V95.9863C164.346 80.671 182.892 68.255 205.771 68.2549C322.626 64.7071 419.306 86.8936 422.013 0V233.255Z" fill="white"/>
<path d="M147.43 154.176C236.833 156.491 153.723 83.1127 234.276 90.5267H372.999C389.231 90.5269 402.351 103.9 402.352 120.398V187.111C402.352 203.608 389.192 216.983 372.96 216.983C372.96 216.983 164.785 216.842 137.482 216.983C110.18 217.124 75.4213 216.983 73.8008 192.542C72.1806 168.102 70.8617 152.194 147.43 154.176Z" fill="#F3F5F5"/>
</svg>
